Coordinates
version=1
nRows=24
nColumns=22
inDegrees=yes

Units are S.I. units (second, meters, Newtons, ...)
If the header above contains a line with 'inDegrees', this indicates whether rotational values are in degrees (yes) or radians (no).

endheader
time	pelvis_tilt	pelvis_list	pelvis_rotation	pelvis_tx	pelvis_ty	pelvis_tz	hip_flexion_r	hip_adduction_r	hip_rotation_r	knee_angle_r	ankle_angle_r	subtalar_angle_r	hip_flexion_l	hip_adduction_l	hip_rotation_l	knee_angle_l	ankle_angle_l	subtalar_angle_l	lumbar_extension	lumbar_bending	lumbar_rotation
      1.36000000	      1.08723591	     -1.15036714	     -5.35909612	     -1.15349674	      0.93573263	     -0.11373771	     -3.21456975	     -1.54019963	      4.69435955	     -5.59806357	      5.92825945	      2.95097982	     -2.44096735	     -2.25916187	    -12.03821093	    -10.14293398	      9.11765437	      2.42204862	     -4.59072510	     -2.95335416	     -0.78487918
      1.37000000	      1.02807637	     -1.13358376	     -5.32321863	     -1.15274283	      0.93561551	     -0.11432299	     -3.24691381	     -1.59691795	      4.68841297	     -5.51488073	      5.94034141	      2.98059085	     -2.42267749	     -2.20637298	    -12.02785204	    -10.13586973	      9.16421450	      2.40353660	     -4.51644338	     -2.96978587	     -0.83284686
      1.38000000	      0.95390045	     -1.11258730	     -5.27284960	     -1.15198983	      0.93547622	     -0.11498675	     -3.26203151	     -1.65975738	      4.65312494	     -5.43512823	      5.94812263	      3.02399463	     -2.38310456	     -2.14554569	    -11.97978017	    -10.13127748	      9.20391545	      2.36568207	     -4.42710160	     -2.98186135	     -0.89798159
      1.39000000	      0.89342411	     -1.11159586	     -5.23981530	     -1.15117416	      0.93535034	     -0.11564285	     -3.29420474	     -1.70310221	      4.61512765	     -5.36006305	      5.96836405	      3.04223689	     -2.37296946	     -2.10363261	    -11.98266405	    -10.11447802	      9.23699646	      2.34912806	     -4.34533052	     -2.97613533	     -0.92666726
      1.40000000	      0.80286901	     -1.07340058	     -5.15252760	     -1.15043299	      0.93517031	     -0.11645734	     -3.29298931	     -1.78792639	      4.56326255	     -5.28228066	      5.97610223	      3.10198407	     -2.28258263	     -2.02229813	    -11.87181845	    -10.16096648	      9.30536134	      2.27960387	     -4.24806025	     -3.00111212	     -1.03144926
      1.41000000	      0.69520225	     -1.06813952	     -5.07578825	     -1.14961297	      0.93496154	     -0.11727874	     -3.26946398	     -1.83611137	      4.44972835	     -5.22598239	      6.00242534	      3.18463898	     -2.17981705	     -1.97789426	    -11.78952652	    -10.21508175	      9.36643619	      2.15961149	     -4.11844254	     -2.98795547	     -1.10289774
      1.42000000	      0.63056036	     -1.05227901	     -5.02200415	     -1.14877587	      0.93480100	     -0.11811005	     -3.30644293	     -1.90525219	      4.42345364	     -5.13703471	      6.01903995	      3.21048541	     -2.11955532	     -1.91596617	    -11.75114509	    -10.28291502	      9.44703325	      2.12265789	     -4.04222341	     -2.98971385	     -1.16268229
      1.43000000	      0.54129788	     -1.05519743	     -4.95051194	     -1.14791327	      0.93460119	     -0.11897876	     -3.31748147	     -1.95143901	      4.32911123	     -5.05547779	      6.03047575	      3.25050559	     -2.01239953	     -1.88035530	    -11.67357424	    -10.39659074	      9.54948468	      2.05152647	     -3.93482230	     -2.97099968	     -1.24507137
      1.44000000	      0.43606678	     -1.07667334	     -4.87650286	     -1.14707687	      0.93437892	     -0.11989163	     -3.30384912	     -1.97864912	      4.20602422	     -4.98633307	      6.03690793	      3.29558698	     -1.86765586	     -1.86781915	    -11.61127518	    -10.54820013	      9.67216767	      1.97282929	     -3.82027424	     -2.92565252	     -1.31964262
      1.45000000	      0.31236287	     -1.12957322	     -4.82366632	     -1.14624368	      0.93414053	     -0.12074552	     -3.25368228	     -1.96698583	      4.03738130	     -4.94714569	      6.03212366	      3.34707960	     -1.68789838	     -1.89808285	    -11.56270891	    -10.74399306	      9.80916281	      1.89545580	     -3.68379538	     -2.85154498	     -1.36982727
      1.46000000	      0.14067882	     -1.21140668	     -4.79346922	     -1.14549082	      0.93385156	     -0.12155257	     -3.12155491	     -1.91874657	      3.85371678	     -4.95441989	      6.02805869	      3.41679928	     -1.43630176	     -1.96914075	    -11.50176504	    -10.98171221	      9.95619949	      1.82237073	     -3.50522920	     -2.74795649	     -1.38301732
      1.47000000	     -0.04948208	     -1.31655047	     -4.78519718	     -1.14474435	      0.93355256	     -0.12230626	     -2.95908030	     -1.84249289	      3.59366544	     -4.97305516	      6.01149932	      3.48443055	     -1.15224498	     -2.07560080	    -11.51216040	    -11.25368669	     10.12896774	      1.78548558	     -3.30493733	     -2.62126454	     -1.39239708
      1.48000000	     -0.22378403	     -1.47386490	     -4.78526604	     -1.14409109	      0.93329169	     -0.12301243	     -2.78722638	     -1.70699734	      3.27487025	     -5.03396858	      5.98635109	      3.53954186	     -0.85156491	     -2.24847143	    -11.52331933	    -11.59648530	     10.34022529	      1.77062570	     -3.14626612	     -2.44399550	     -1.38424687
      1.49000000	     -0.47285650	     -1.63968892	     -4.81620523	     -1.14346893	      0.93294458	     -0.12368564	     -2.49277621	     -1.55585860	      2.90070968	     -5.16317015	      5.95953176	      3.59972527	     -0.46955736	     -2.43935937	    -11.56212749	    -11.94447721	     10.53457732	      1.76567430	     -2.90073266	     -2.25207314	     -1.34495879
      1.50000000	     -0.65342831	     -1.82987921	     -4.83780236	     -1.14286435	      0.93267972	     -0.12440904	     -2.26582227	     -1.38542716	      2.52354451	     -5.30844344	      5.96871913	      3.63588092	     -0.13991374	     -2.65363153	    -11.60046522	    -12.33929793	     10.76378368	      1.75658595	     -2.75180918	     -2.03704349	     -1.31665088
      1.51000000	     -0.89338324	     -1.98439877	     -4.87164248	     -1.14220637	      0.93232175	     -0.12523435	     -1.93820242	     -1.25531865	      2.17378758	     -5.52548604	      5.98400752	      3.65848151	      0.23503267	     -2.82087052	    -11.62087665	    -12.69517327	     10.94415805	      1.73747802	     -2.51998043	     -1.84531512	     -1.27007791
      1.52000000	     -1.05150261	     -2.11312140	     -4.88182398	     -1.14144853	      0.93203059	     -0.12623812	     -1.70424440	     -1.16963074	      1.89156487	     -5.74925697	      6.06127884	      3.66063318	      0.51488229	     -2.94000807	    -11.63143408	    -13.03835519	     11.13381650	      1.70075616	     -2.38054946	     -1.67460291	     -1.25636684
      1.53000000	     -1.15734605	     -2.19969903	     -4.87548637	     -1.14054927	      0.93175974	     -0.12741536	     -1.52661556	     -1.14331250	      1.68339870	     -5.99299969	      6.20913723	      3.65283476	      0.71630363	     -2.99154422	    -11.62333397	    -13.34168897	     11.32145089	      1.65345649	     -2.28606191	     -1.54334709	     -1.26523177
      1.54000000	     -1.22172377	     -2.24072340	     -4.86177393	     -1.13954590	      0.93150354	     -0.12875725	     -1.36835027	     -1.17856318	      1.55066204	     -6.29634857	      6.40073811	      3.63547354	      0.85043516	     -2.97167792	    -11.60182594	    -13.59949290	     11.48008531	      1.59520160	     -2.22787460	     -1.45214505	     -1.29006132
      1.55000000	     -1.25349546	     -2.24541693	     -4.84319426	     -1.13845213	      0.93124827	     -0.13023838	     -1.20766171	     -1.26262125	      1.47112806	     -6.68199962	      6.63110903	      3.60802405	      0.92734936	     -2.89358312	    -11.57601452	    -13.81513478	     11.62880507	      1.52196664	     -2.20020625	     -1.39165213	     -1.33221176
      1.56000000	     -1.20182258	     -2.23769898	     -4.83381930	     -1.13726401	      0.93106423	     -0.13180755	     -1.09846514	     -1.37221669	      1.42986198	     -7.14866021	      6.88053224	      3.59658311	      0.88326984	     -2.78172547	    -11.55966737	    -13.98277479	     11.80256768	      1.49053234	     -2.26486942	     -1.34407467	     -1.35070359
      1.57000000	     -1.19230014	     -2.16519607	     -4.81512657	     -1.13606981	      0.93076611	     -0.13346968	     -0.87090473	     -1.54956489	      1.43817443	     -7.75524206	      7.26599840	      3.55469398	      0.89195303	     -2.59612026	    -11.53109702	    -14.14838254	     11.92769931	      1.38887562	     -2.27659532	     -1.36177377	     -1.45196817
      1.58000000	     -1.13115373	     -2.08486766	     -4.81271897	     -1.13486325	      0.93048765	     -0.13517781	     -0.62306647	     -1.74032516	      1.46981924	     -8.50112367	      7.66309388	      3.52118531	      0.83445880	     -2.39057613	    -11.50756296	    -14.30051836	     12.08652356	      1.31014365	     -2.35637784	     -1.38944679	     -1.51933710
      1.59000000	     -1.08633410	     -1.95313147	     -4.82374851	     -1.13370097	      0.93012890	     -0.13693883	     -0.25568086	     -1.98451075	      1.53882421	     -9.42525436	      8.11800442	      3.47190450	      0.80407705	     -2.12366698	    -11.46310877	    -14.45903821	     12.20635131	      1.18832749	     -2.42719157	     -1.47357867	     -1.57661790
